<svg width="29" height="32" viewBox="0 0 29 32" fill="none" xmlns="http://www.w3.org/2000/svg">
<g id="Group 1">
<g id="Ellipse 1" filter="url(#filter0_d_1_18)">
<path d="M18.4154 11.4691C17.4351 9.802 15.8446 8.57235 13.9474 8.01483C12.0502 7.45731 9.97924 7.61098 8.1298 8.44649C7.12243 8.90158 6.20507 9.42543 5.44706 10.1629C4.12468 11.4494 4.09671 13.6704 5.48032 14.8908C6.2045 15.5295 6.91022 15.9375 7.2267 16.9768C7.50358 17.8861 7.26674 18.706 7.04334 19.5749C6.55049 21.4919 7.92074 23.3066 9.88368 23.5606C10.8067 23.6801 11.7583 23.6434 12.6969 23.4445C14.6732 23.0257 16.4533 21.9167 17.6973 20.3292C18.9413 18.7418 19.5622 16.7871 19.4413 14.8383L19.2881 13.6277C19.189 12.8447 18.8883 12.1009 18.4154 11.4691Z" fill="white"/>
<path d="M17.9844 11.7225L17.9985 11.7464L18.0151 11.7687C18.4361 12.3312 18.7039 12.9934 18.7921 13.6904L18.9433 14.8849C19.0519 16.702 18.4716 18.5306 17.3037 20.0208C16.1323 21.5157 14.4549 22.5608 12.5932 22.9554C11.7095 23.1427 10.8147 23.177 9.94785 23.0648C8.2498 22.845 7.11763 21.294 7.52759 19.6994C7.54005 19.651 7.55275 19.6021 7.56556 19.5528C7.77392 18.7509 8.01134 17.8371 7.70501 16.8312C7.39912 15.8266 6.74723 15.2914 6.16347 14.812C6.04179 14.7121 5.92307 14.6146 5.81106 14.5158C4.66303 13.5032 4.66523 11.6211 5.79572 10.5213C6.49444 9.84149 7.35266 9.34622 8.33565 8.90215C10.0792 8.11446 12.0273 7.97171 13.8064 8.49455C15.5847 9.01713 17.0701 10.1677 17.9844 11.7225Z" stroke="black"/>
<path d="M17.9844 11.7225L17.9985 11.7464L18.0151 11.7687C18.4361 12.3312 18.7039 12.9934 18.7921 13.6904L18.9433 14.8849C19.0519 16.702 18.4716 18.5306 17.3037 20.0208C16.1323 21.5157 14.4549 22.5608 12.5932 22.9554C11.7095 23.1427 10.8147 23.177 9.94785 23.0648C8.2498 22.845 7.11763 21.294 7.52759 19.6994C7.54005 19.651 7.55275 19.6021 7.56556 19.5528C7.77392 18.7509 8.01134 17.8371 7.70501 16.8312C7.39912 15.8266 6.74723 15.2914 6.16347 14.812C6.04179 14.7121 5.92307 14.6146 5.81106 14.5158C4.66303 13.5032 4.66523 11.6211 5.79572 10.5213C6.49444 9.84149 7.35266 9.34622 8.33565 8.90215C10.0792 8.11446 12.0273 7.97171 13.8064 8.49455C15.5847 9.01713 17.0701 10.1677 17.9844 11.7225Z" stroke="black" stroke-opacity="0.2"/>
</g>
<ellipse id="Ellipse 2" cx="13.7711" cy="3.52298" rx="2.7541" ry="2.55738" transform="rotate(4.67804 13.7711 3.52298)" fill="white"/>
<ellipse id="Ellipse 3" cx="21.3891" cy="6.90958" rx="2.7541" ry="2.55738" transform="rotate(4.67804 21.3891 6.90958)" fill="white"/>
<ellipse id="Ellipse 4" cx="24.437" cy="13.0805" rx="2.7541" ry="2.55738" transform="rotate(4.67804 24.437 13.0805)" fill="white"/>
<path id="Ellipse 5" d="M26.1046 21.1121C26.3452 21.1318 26.5603 20.9514 26.5357 20.7113C26.4866 20.231 26.2922 19.7685 25.9705 19.3794C25.5521 18.8733 24.9481 18.5276 24.276 18.4093C23.6038 18.291 22.9113 18.4085 22.3329 18.7391C21.7545 19.0696 21.3315 19.5897 21.146 20.1982C20.9605 20.8067 21.0257 21.4603 21.329 22.0322C21.6323 22.604 22.152 23.0533 22.7873 23.2927C23.4226 23.5321 24.128 23.5447 24.7668 23.3279C25.2553 23.1622 25.6781 22.8713 25.9895 22.4928C26.1456 22.303 26.0584 22.0291 25.8376 21.9212C25.4118 21.7131 25.5885 21.0699 26.0609 21.1085L26.1046 21.1121Z" fill="white"/>
</g>
<defs>
<filter id="filter0_d_1_18" x="0.448975" y="7.6853" width="23.0072" height="23.9436" filterUnits="userSpaceOnUse" color-interpolation-filters="sRGB">
<feFlood flood-opacity="0" result="BackgroundImageFix"/>
<feColorMatrix in="SourceAlpha" type="matrix" values="0 0 0 0 0 0 0 0 0 0 0 0 0 0 0 0 0 0 127 0" result="hardAlpha"/>
<feOffset dy="4"/>
<feGaussianBlur stdDeviation="2"/>
<feComposite in2="hardAlpha" operator="out"/>
<feColorMatrix type="matrix" values="0 0 0 0 0 0 0 0 0 0 0 0 0 0 0 0 0 0 0.25 0"/>
<feBlend mode="normal" in2="BackgroundImageFix" result="effect1_dropShadow_1_18"/>
<feBlend mode="normal" in="SourceGraphic" in2="effect1_dropShadow_1_18" result="shape"/>
</filter>
</defs>
</svg>
